# xmcd
#
# Track frame offsets:
#	150
#	23843
#	44110
#
# Disc length: 830 seconds
#
# Revision: 0
# Processed by: cddbd v1.5.2PL0 Copyright (c) Steve Scherf et al.
# Submitted via: EasyCDDAExtractor 9.0.0.1
#
DISCID=22033c03
DTITLE=Marysia Gorajska and AWRA - aNiO³Y
DYEAR=2006
DGENRE=Country
TTITLE0=Nie zaczynaj nigdy z anio³ami
TTITLE1=I tak jak ptaki
TTITLE2=Can I Get An Amen
EXTD=
EXTT0=
EXTT1=
EXTT2=
PLAYORDER=
